# Blender 4.4.3
# www.blender.org
mtllib base.mtl
o base.001
v 0.200000 0.030000 0.050000
v 0.200000 0.030000 -0.000000
v -1.200000 0.030000 0.050000
v -1.200000 0.030000 -0.550000
v -1.200000 -0.070000 0.050000
v 0.200000 -0.070000 0.050000
v 0.200000 0.030000 -0.000000
v 0.200000 0.740000 -0.050000
v 0.200000 0.740000 -0.000000
v 0.138957 0.707894 -0.050000
v 0.100000 0.740000 -0.050000
v 0.200000 0.030000 -0.050000
v 0.180000 0.680000 -0.050000
v 0.177894 0.668957 -0.050000
v 0.180000 0.680000 -0.000000
v 0.177894 0.668957 -0.000000
v 0.171213 0.658787 -0.050000
v 0.171213 0.658787 -0.000000
v 0.161043 0.652106 -0.050000
v 0.161043 0.652106 -0.000000
v 0.150000 0.650000 -0.050000
v 0.138957 0.652106 -0.050000
v 0.150000 0.650000 -0.000000
v 0.138957 0.652106 -0.000000
v 0.128787 0.658787 -0.050000
v 0.128787 0.658787 -0.000000
v 0.122106 0.668957 -0.050000
v 0.122106 0.668957 -0.000000
v 0.120000 0.680000 -0.050000
v 0.122106 0.691043 -0.050000
v 0.120000 0.680000 -0.000000
v 0.122106 0.691043 -0.000000
v 0.128787 0.701213 -0.050000
v 0.128787 0.701213 -0.000000
v 0.138957 0.707894 -0.000000
v 0.150000 0.710000 -0.050000
v 0.150000 0.710000 -0.000000
v 0.161043 0.707894 -0.050000
v 0.161043 0.707894 -0.000000
v 0.171213 0.701213 -0.050000
v 0.171213 0.701213 -0.000000
v 0.177894 0.691043 -0.050000
v 0.177894 0.691043 -0.000000
v 0.100000 0.030000 -0.050000
v 0.200000 -0.070000 -0.550000
v 0.100000 0.030000 -0.000000
v -0.250000 0.030000 -0.000000
v -0.250000 0.030000 -0.050000
v -0.350000 0.030000 -0.050000
v -0.278787 0.198787 -0.050000
v -0.288957 0.192106 -0.050000
v -0.278787 0.198787 -0.000000
v -0.288957 0.192106 -0.000000
v -0.300000 0.190000 -0.050000
v -0.311043 0.192106 -0.050000
v -0.300000 0.190000 -0.000000
v -0.311043 0.192106 -0.000000
v -0.321213 0.198787 -0.050000
v -0.321213 0.198787 -0.000000
v -0.327894 0.208957 -0.050000
v -0.327894 0.208957 -0.000000
v -0.330000 0.220000 -0.050000
v -0.350000 0.280000 -0.050000
v -0.327894 0.231043 -0.050000
v -0.330000 0.220000 -0.000000
v -0.327894 0.231043 -0.000000
v -0.321213 0.241213 -0.050000
v -0.321213 0.241213 -0.000000
v -0.311043 0.247894 -0.050000
v -0.311043 0.247894 -0.000000
v -0.300000 0.250000 -0.050000
v -0.250000 0.280000 -0.050000
v -0.300000 0.250000 -0.000000
v -0.288957 0.247894 -0.050000
v -0.288957 0.247894 -0.000000
v -0.278787 0.241213 -0.050000
v -0.278787 0.241213 -0.000000
v -0.272106 0.231043 -0.050000
v -0.272106 0.231043 -0.000000
v -0.270000 0.220000 -0.050000
v -0.272106 0.208957 -0.050000
v -0.270000 0.220000 -0.000000
v -0.272106 0.208957 -0.000000
v -0.350000 0.030000 -0.000000
v -0.350000 0.280000 -0.000000
v -0.330000 0.220000 -0.000000
v -0.327894 0.208957 -0.000000
v -0.321213 0.198787 -0.000000
v -0.250000 0.030000 -0.000000
v -0.311043 0.192106 -0.000000
v -0.300000 0.190000 -0.000000
v -0.288957 0.192106 -0.000000
v -0.278787 0.198787 -0.000000
v -0.272106 0.208957 -0.000000
v -0.250000 0.280000 -0.000000
v -0.270000 0.220000 -0.000000
v -0.272106 0.231043 -0.000000
v -0.278787 0.241213 -0.000000
v -0.288957 0.247894 -0.000000
v -0.300000 0.250000 -0.000000
v -0.311043 0.247894 -0.000000
v -0.321213 0.241213 -0.000000
v -0.327894 0.231043 -0.000000
v 0.200000 0.030000 -0.450000
v -0.350000 0.030000 -0.000000
v 0.100000 0.030000 -0.000000
v 0.200000 0.740000 -0.450000
v 0.100000 0.030000 -0.450000
v 0.100000 0.740000 -0.500000
v 0.100000 0.030000 -0.500000
v 0.200000 0.030000 -0.500000
v 0.122106 0.668957 -0.500000
v 0.128787 0.658787 -0.450000
v 0.128787 0.658787 -0.500000
v 0.138957 0.652106 -0.450000
v 0.138957 0.652106 -0.500000
v 0.150000 0.650000 -0.450000
v 0.122106 0.668957 -0.450000
v 0.120000 0.680000 -0.500000
v 0.122106 0.691043 -0.500000
v 0.120000 0.680000 -0.450000
v 0.122106 0.691043 -0.450000
v 0.128787 0.701213 -0.500000
v 0.128787 0.701213 -0.450000
v 0.138957 0.707894 -0.500000
v 0.138957 0.707894 -0.450000
v 0.150000 0.710000 -0.500000
v 0.200000 0.740000 -0.500000
v 0.180000 0.680000 -0.500000
v 0.177894 0.668957 -0.500000
v 0.180000 0.680000 -0.450000
v 0.177894 0.668957 -0.450000
v 0.171213 0.658787 -0.500000
v 0.171213 0.658787 -0.450000
v 0.161043 0.652106 -0.500000
v 0.161043 0.652106 -0.450000
v 0.150000 0.650000 -0.500000
v 0.200000 0.030000 -0.550000
v -1.200000 -0.070000 -0.550000
v -0.350000 0.030000 -0.500000
v -0.350000 0.280000 -0.500000
v -0.327894 0.208957 -0.500000
v -0.321213 0.198787 -0.450000
v -0.321213 0.198787 -0.500000
v -0.311043 0.192106 -0.450000
v -0.311043 0.192106 -0.500000
v -0.300000 0.190000 -0.450000
v -0.327894 0.208957 -0.450000
v -0.330000 0.220000 -0.500000
v -0.327894 0.231043 -0.500000
v -0.330000 0.220000 -0.450000
v -0.327894 0.231043 -0.450000
v -0.321213 0.241213 -0.500000
v -0.321213 0.241213 -0.450000
v -0.311043 0.247894 -0.500000
v -0.311043 0.247894 -0.450000
v -0.300000 0.250000 -0.500000
v -0.250000 0.280000 -0.500000
v -0.300000 0.250000 -0.450000
v -0.288957 0.247894 -0.500000
v -0.288957 0.247894 -0.450000
v -0.278787 0.241213 -0.500000
v -0.278787 0.241213 -0.450000
v -0.272106 0.231043 -0.500000
v -0.272106 0.231043 -0.450000
v -0.270000 0.220000 -0.500000
v -0.272106 0.208957 -0.500000
v -0.270000 0.220000 -0.450000
v -0.272106 0.208957 -0.450000
v -0.278787 0.198787 -0.500000
v -0.250000 0.030000 -0.500000
v -0.278787 0.198787 -0.450000
v -0.288957 0.192106 -0.500000
v -0.288957 0.192106 -0.450000
v -0.300000 0.190000 -0.500000
v -0.350000 0.030000 -0.450000
v -0.250000 0.280000 -0.450000
v -0.250000 0.030000 -0.450000
v -0.350000 0.280000 -0.450000
v 0.100000 0.740000 -0.450000
v 0.177894 0.691043 -0.450000
v 0.177894 0.691043 -0.500000
v 0.171213 0.701213 -0.450000
v 0.171213 0.701213 -0.500000
v 0.161043 0.707894 -0.450000
v 0.161043 0.707894 -0.500000
v 0.150000 0.710000 -0.450000
v 0.100000 0.740000 -0.000000
v 0.200000 0.740000 -0.000000
v 0.177894 0.668957 -0.000000
v 0.180000 0.680000 -0.000000
v 0.177894 0.691043 -0.000000
v 0.171213 0.701213 -0.000000
v 0.161043 0.707894 -0.000000
v 0.120000 0.680000 -0.000000
v 0.122106 0.668957 -0.000000
v 0.128787 0.658787 -0.000000
v 0.138957 0.652106 -0.000000
v 0.150000 0.650000 -0.000000
v 0.161043 0.652106 -0.000000
v 0.171213 0.658787 -0.000000
v 0.200000 0.030000 -0.000000
v 0.100000 0.740000 -0.000000
v 0.122106 0.691043 -0.000000
v 0.128787 0.701213 -0.000000
v 0.138957 0.707894 -0.000000
v 0.150000 0.710000 -0.000000
vn -0.0000 1.0000 -0.0000
vn -1.0000 -0.0000 -0.0000
vn -0.0000 -0.0000 1.0000
vn 1.0000 -0.0000 -0.0000
vn -0.0000 -0.0000 -1.0000
vn -0.9823 0.1874 -0.0000
vn -0.8358 0.5490 -0.0000
vn -0.5490 0.8358 -0.0000
vn -0.1874 0.9823 -0.0000
vn 0.1874 0.9823 -0.0000
vn 0.5490 0.8358 -0.0000
vn 0.8358 0.5490 -0.0000
vn 0.9823 0.1874 -0.0000
vn 0.9823 -0.1874 -0.0000
vn 0.8358 -0.5490 -0.0000
vn 0.5490 -0.8358 -0.0000
vn 0.1874 -0.9823 -0.0000
vn -0.1874 -0.9823 -0.0000
vn -0.5490 -0.8358 -0.0000
vn -0.8358 -0.5490 -0.0000
vn -0.9823 -0.1874 -0.0000
vn -0.0000 -1.0000 -0.0000
s 1
usemtl part_1.002
f 1//1 2//1 3//1
f 4//2 5//2 3//2
f 3//3 6//3 1//3
f 1//4 6//4 7//4
f 7//4 8//4 9//4
f 10//5 11//5 8//5
f 8//5 12//5 13//5
f 13//6 14//6 15//6
f 15//6 14//6 16//6
f 16//7 17//7 18//7
f 18//8 19//8 20//8
f 21//9 20//9 19//9
f 17//8 19//8 18//8
f 19//5 12//5 21//5
f 21//10 22//10 23//10
f 23//10 22//10 24//10
f 24//11 25//11 26//11
f 26//12 27//12 28//12
f 29//13 28//13 27//13
f 25//12 27//12 26//12
f 27//5 11//5 29//5
f 29//14 30//14 31//14
f 31//14 30//14 32//14
f 32//15 33//15 34//15
f 34//16 10//16 35//16
f 36//17 35//17 10//17
f 33//16 10//16 34//16
f 33//5 11//5 10//5
f 10//5 8//5 36//5
f 37//17 35//17 36//17
f 36//18 38//18 37//18
f 37//18 38//18 39//18
f 39//19 40//19 41//19
f 41//20 42//20 43//20
f 13//21 43//21 42//21
f 40//20 42//20 41//20
f 42//5 8//5 13//5
f 15//21 43//21 13//21
f 13//5 12//5 14//5
f 14//7 17//7 16//7
f 17//5 12//5 19//5
f 12//5 11//5 27//5
f 25//5 12//5 27//5
f 22//5 12//5 25//5
f 22//11 25//11 24//11
f 21//5 12//5 22//5
f 14//5 12//5 17//5
f 44//5 11//5 12//5
f 12//4 8//4 7//4
f 6//4 12//4 7//4
f 45//4 12//4 6//4
f 5//3 6//3 3//3
f 3//1 46//1 47//1
f 47//1 44//1 48//1
f 48//5 49//5 50//5
f 50//8 51//8 52//8
f 52//8 51//8 53//8
f 54//9 53//9 51//9
f 51//5 49//5 54//5
f 54//10 55//10 56//10
f 56//10 55//10 57//10
f 57//11 58//11 59//11
f 59//12 60//12 61//12
f 62//13 61//13 60//13
f 58//12 60//12 59//12
f 60//5 63//5 62//5
f 62//14 64//14 65//14
f 65//14 64//14 66//14
f 66//15 67//15 68//15
f 68//16 69//16 70//16
f 71//17 70//17 69//17
f 67//16 69//16 68//16
f 69//5 72//5 71//5
f 73//17 70//17 71//17
f 71//18 74//18 73//18
f 73//18 74//18 75//18
f 75//19 76//19 77//19
f 77//20 78//20 79//20
f 80//21 79//21 78//21
f 76//20 78//20 77//20
f 78//5 72//5 80//5
f 80//6 81//6 82//6
f 82//6 81//6 83//6
f 83//7 50//7 52//7
f 81//7 50//7 83//7
f 50//5 49//5 51//5
f 49//5 63//5 60//5
f 58//5 49//5 60//5
f 55//5 49//5 58//5
f 55//11 58//11 57//11
f 54//5 49//5 55//5
f 49//2 84//2 63//2
f 63//5 72//5 69//5
f 67//5 63//5 69//5
f 64//5 63//5 67//5
f 64//15 67//15 66//15
f 62//5 63//5 64//5
f 63//2 84//2 85//2
f 85//3 84//3 86//3
f 86//3 84//3 87//3
f 87//3 84//3 88//3
f 88//3 89//3 90//3
f 90//3 89//3 91//3
f 91//3 89//3 92//3
f 92//3 89//3 93//3
f 93//3 89//3 94//3
f 94//3 95//3 96//3
f 96//3 95//3 97//3
f 97//3 95//3 98//3
f 98//3 95//3 99//3
f 99//3 85//3 100//3
f 100//3 85//3 101//3
f 101//3 85//3 102//3
f 102//3 85//3 103//3
f 103//3 85//3 86//3
f 95//3 85//3 99//3
f 85//1 95//1 63//1
f 63//1 95//1 72//1
f 72//5 48//5 80//5
f 82//21 79//21 80//21
f 80//5 48//5 81//5
f 81//5 48//5 50//5
f 95//4 48//4 72//4
f 76//5 72//5 78//5
f 74//5 72//5 76//5
f 74//19 76//19 75//19
f 71//5 72//5 74//5
f 89//4 48//4 95//4
f 89//3 95//3 94//3
f 84//3 89//3 88//3
f 48//1 104//1 49//1
f 49//1 3//1 105//1
f 105//1 3//1 47//1
f 46//1 44//1 47//1
f 106//2 11//2 44//2
f 44//1 104//1 48//1
f 104//3 107//3 108//3
f 108//2 109//2 110//2
f 110//5 109//5 111//5
f 111//5 109//5 112//5
f 112//12 113//12 114//12
f 114//11 115//11 116//11
f 117//10 116//10 115//10
f 113//11 115//11 114//11
f 114//5 111//5 112//5
f 118//12 113//12 112//12
f 119//13 118//13 112//13
f 112//5 109//5 119//5
f 119//14 120//14 121//14
f 121//14 120//14 122//14
f 123//15 122//15 120//15
f 120//5 109//5 123//5
f 124//15 122//15 123//15
f 125//16 124//16 123//16
f 123//5 109//5 125//5
f 126//16 124//16 125//16
f 127//17 126//17 125//17
f 125//5 109//5 128//5
f 128//5 111//5 129//5
f 129//6 130//6 131//6
f 131//6 130//6 132//6
f 133//7 132//7 130//7
f 130//5 111//5 133//5
f 134//7 132//7 133//7
f 135//8 134//8 133//8
f 133//5 111//5 135//5
f 136//8 134//8 135//8
f 137//9 136//9 135//9
f 135//5 111//5 137//5
f 137//10 116//10 117//10
f 117//9 136//9 137//9
f 137//5 111//5 116//5
f 116//5 111//5 114//5
f 129//5 111//5 130//5
f 111//4 104//4 45//4
f 104//4 12//4 45//4
f 138//4 111//4 45//4
f 45//5 139//5 138//5
f 138//5 139//5 4//5
f 139//2 5//2 4//2
f 4//1 3//1 140//1
f 140//5 141//5 142//5
f 142//12 143//12 144//12
f 144//11 145//11 146//11
f 147//10 146//10 145//10
f 143//11 145//11 144//11
f 144//5 140//5 142//5
f 148//12 143//12 142//12
f 149//13 148//13 142//13
f 142//5 141//5 149//5
f 149//14 150//14 151//14
f 151//14 150//14 152//14
f 153//15 152//15 150//15
f 150//5 141//5 153//5
f 154//15 152//15 153//15
f 155//16 154//16 153//16
f 153//5 141//5 155//5
f 156//16 154//16 155//16
f 157//17 156//17 155//17
f 155//5 158//5 157//5
f 159//17 156//17 157//17
f 157//18 160//18 159//18
f 159//18 160//18 161//18
f 162//19 161//19 160//19
f 160//5 158//5 162//5
f 163//19 161//19 162//19
f 164//20 163//20 162//20
f 162//5 158//5 164//5
f 165//20 163//20 164//20
f 166//21 165//21 164//21
f 164//5 158//5 166//5
f 166//6 167//6 168//6
f 168//6 167//6 169//6
f 170//7 169//7 167//7
f 167//5 171//5 170//5
f 172//7 169//7 170//7
f 173//8 172//8 170//8
f 170//5 140//5 173//5
f 174//8 172//8 173//8
f 175//9 174//9 173//9
f 173//5 140//5 175//5
f 175//10 146//10 147//10
f 147//9 174//9 175//9
f 175//5 140//5 146//5
f 146//5 140//5 144//5
f 171//5 140//5 170//5
f 140//2 176//2 141//2
f 141//5 158//5 155//5
f 177//4 171//4 158//4
f 158//5 171//5 166//5
f 168//21 165//21 166//21
f 166//5 171//5 167//5
f 178//4 171//4 177//4
f 169//3 177//3 168//3
f 168//3 177//3 165//3
f 165//3 177//3 163//3
f 163//3 177//3 161//3
f 161//3 179//3 159//3
f 159//3 179//3 156//3
f 156//3 179//3 154//3
f 154//3 179//3 152//3
f 152//3 179//3 151//3
f 151//13 148//13 149//13
f 149//5 141//5 150//5
f 141//2 176//2 179//2
f 179//3 176//3 151//3
f 151//3 176//3 148//3
f 148//3 176//3 143//3
f 143//3 178//3 145//3
f 145//3 178//3 147//3
f 147//3 178//3 174//3
f 174//3 178//3 172//3
f 172//3 178//3 169//3
f 178//3 177//3 169//3
f 177//3 179//3 161//3
f 158//1 179//1 177//1
f 141//1 179//1 158//1
f 157//5 158//5 160//5
f 176//3 178//3 143//3
f 178//1 3//1 110//1
f 110//1 3//1 108//1
f 180//2 109//2 108//2
f 108//3 107//3 132//3
f 132//3 107//3 131//3
f 131//21 181//21 129//21
f 129//21 181//21 182//21
f 182//20 183//20 184//20
f 184//19 185//19 186//19
f 187//18 186//18 185//18
f 183//19 185//19 184//19
f 184//5 128//5 182//5
f 181//20 183//20 182//20
f 182//5 128//5 129//5
f 186//5 128//5 184//5
f 127//5 128//5 186//5
f 127//18 186//18 187//18
f 187//17 126//17 127//17
f 125//5 128//5 127//5
f 128//1 180//1 107//1
f 185//3 107//3 180//3
f 180//3 108//3 121//3
f 121//13 118//13 119//13
f 119//5 109//5 120//5
f 109//1 180//1 128//1
f 128//4 104//4 111//4
f 111//1 4//1 110//1
f 110//1 4//1 171//1
f 171//1 4//1 140//1
f 140//1 3//1 176//1
f 176//1 3//1 178//1
f 178//1 110//1 171//1
f 104//1 3//1 49//1
f 108//1 3//1 104//1
f 107//4 104//4 128//4
f 12//1 104//1 44//1
f 183//3 107//3 185//3
f 185//3 180//3 187//3
f 187//3 180//3 126//3
f 126//3 180//3 124//3
f 124//3 180//3 122//3
f 122//3 180//3 121//3
f 121//3 108//3 118//3
f 118//3 108//3 113//3
f 113//3 108//3 115//3
f 115//3 108//3 117//3
f 117//3 108//3 136//3
f 136//3 108//3 134//3
f 134//3 108//3 132//3
f 181//3 107//3 183//3
f 131//3 107//3 181//3
f 2//1 46//1 3//1
f 138//1 4//1 111//1
f 45//22 5//22 139//22
f 6//22 5//22 45//22
f 188//2 11//2 106//2
f 106//3 189//3 190//3
f 190//3 189//3 191//3
f 191//3 189//3 192//3
f 192//3 189//3 193//3
f 193//3 189//3 194//3
f 194//3 189//3 188//3
f 188//3 106//3 195//3
f 195//3 106//3 196//3
f 196//3 106//3 197//3
f 197//3 106//3 198//3
f 198//3 106//3 199//3
f 199//3 106//3 200//3
f 200//3 106//3 201//3
f 201//3 106//3 190//3
f 202//3 189//3 106//3
f 8//1 203//1 189//1
f 11//1 203//1 8//1
f 40//5 8//5 42//5
f 38//5 8//5 40//5
f 38//19 40//19 39//19
f 36//5 8//5 38//5
f 30//5 11//5 33//5
f 30//15 33//15 32//15
f 29//5 11//5 30//5
f 31//13 28//13 29//13
f 204//3 188//3 195//3
f 205//3 188//3 204//3
f 206//3 188//3 205//3
f 207//3 188//3 206//3
f 194//3 188//3 207//3
f 65//13 61//13 62//13
f 56//9 53//9 54//9
f 23//9 20//9 21//9
