# Blender 4.4.3
# www.blender.org
mtllib connector.mtl
o connector
v -0.023401 0.768226 -0.310000
v -0.023401 0.768226 -0.190000
v 0.032111 0.050370 -0.310000
v 0.032111 0.050370 -0.190000
v -0.067591 0.042660 -0.310000
v -0.123103 0.760517 -0.310000
v -0.095585 0.691390 -0.310000
v -0.088140 0.681765 -0.190000
v -0.088140 0.681765 -0.310000
v -0.077485 0.675888 -0.190000
v -0.077485 0.675888 -0.310000
v -0.066313 0.674639 -0.190000
v -0.095585 0.691390 -0.190000
v -0.098537 0.702237 -0.310000
v -0.098537 0.702237 -0.190000
v -0.097288 0.713409 -0.310000
v -0.097288 0.713409 -0.190000
v -0.091412 0.724065 -0.310000
v -0.091412 0.724065 -0.190000
v -0.081786 0.731509 -0.310000
v -0.081786 0.731509 -0.190000
v -0.070939 0.734461 -0.310000
v -0.070939 0.734461 -0.190000
v -0.059767 0.733212 -0.310000
v -0.059767 0.733212 -0.190000
v -0.049111 0.727336 -0.310000
v -0.049111 0.727336 -0.190000
v -0.041667 0.717711 -0.310000
v -0.041667 0.717711 -0.190000
v -0.038715 0.706863 -0.310000
v -0.038715 0.706863 -0.190000
v -0.039964 0.695691 -0.310000
v -0.039964 0.695691 -0.190000
v -0.045840 0.685036 -0.310000
v -0.045840 0.685036 -0.190000
v -0.055465 0.677591 -0.310000
v -0.055465 0.677591 -0.190000
v -0.066313 0.674639 -0.310000
v 0.004593 0.119497 -0.310000
v -0.009206 0.079377 -0.310000
v 0.000419 0.086822 -0.190000
v 0.000419 0.086822 -0.310000
v 0.006296 0.097477 -0.190000
v 0.006296 0.097477 -0.310000
v 0.007544 0.108649 -0.190000
v -0.009206 0.079377 -0.190000
v -0.020053 0.076425 -0.310000
v -0.031226 0.077674 -0.310000
v -0.020053 0.076425 -0.190000
v -0.031226 0.077674 -0.190000
v -0.041881 0.083550 -0.310000
v -0.041881 0.083550 -0.190000
v -0.049325 0.093176 -0.310000
v -0.049325 0.093176 -0.190000
v -0.052277 0.104023 -0.310000
v -0.052277 0.104023 -0.190000
v -0.051028 0.115195 -0.310000
v -0.051028 0.115195 -0.190000
v -0.045152 0.125851 -0.310000
v -0.045152 0.125851 -0.190000
v -0.035527 0.133295 -0.310000
v -0.035527 0.133295 -0.190000
v -0.024679 0.136247 -0.310000
v -0.024679 0.136247 -0.190000
v -0.013507 0.134998 -0.310000
v -0.013507 0.134998 -0.190000
v -0.002852 0.129122 -0.310000
v -0.002852 0.129122 -0.190000
v 0.004593 0.119497 -0.190000
v 0.007544 0.108649 -0.310000
v -0.067591 0.042660 -0.190000
v -0.123103 0.760517 -0.190000
vn 0.9970 0.0771 -0.0000
vn 0.0771 -0.9970 -0.0000
vn -0.0000 -0.0000 -1.0000
vn 0.7910 0.6118 -0.0000
vn 0.4829 0.8757 -0.0000
vn 0.1111 0.9938 -0.0000
vn 0.9649 0.2625 -0.0000
vn 0.9938 -0.1111 -0.0000
vn 0.8757 -0.4829 -0.0000
vn 0.6118 -0.7910 -0.0000
vn 0.2625 -0.9649 -0.0000
vn -0.1111 -0.9938 -0.0000
vn -0.4829 -0.8757 -0.0000
vn -0.7910 -0.6118 -0.0000
vn -0.9649 -0.2625 -0.0000
vn -0.9938 0.1111 -0.0000
vn -0.8757 0.4829 -0.0000
vn -0.6118 0.7910 -0.0000
vn -0.2625 0.9649 -0.0000
vn -0.0000 -0.0000 1.0000
vn -0.0771 0.9970 -0.0000
vn -0.9970 -0.0771 -0.0000
s 1
usemtl part_4
f 1//1 2//1 3//1
f 4//2 5//2 3//2
f 3//3 6//3 7//3
f 7//4 8//4 9//4
f 9//5 10//5 11//5
f 12//6 11//6 10//6
f 8//5 10//5 9//5
f 9//3 3//3 7//3
f 13//4 8//4 7//4
f 14//7 13//7 7//7
f 7//3 6//3 14//3
f 15//7 13//7 14//7
f 14//8 16//8 15//8
f 15//8 16//8 17//8
f 18//9 17//9 16//9
f 16//3 6//3 18//3
f 19//9 17//9 18//9
f 20//10 19//10 18//10
f 18//3 6//3 20//3
f 21//10 19//10 20//10
f 22//11 21//11 20//11
f 20//3 1//3 22//3
f 23//11 21//11 22//11
f 22//12 24//12 23//12
f 23//12 24//12 25//12
f 26//13 25//13 24//13
f 24//3 1//3 26//3
f 27//13 25//13 26//13
f 28//14 27//14 26//14
f 26//3 1//3 28//3
f 29//14 27//14 28//14
f 30//15 29//15 28//15
f 28//3 1//3 30//3
f 31//15 29//15 30//15
f 30//16 32//16 31//16
f 31//16 32//16 33//16
f 34//17 33//17 32//17
f 32//3 3//3 34//3
f 35//17 33//17 34//17
f 36//18 35//18 34//18
f 34//3 3//3 36//3
f 37//18 35//18 36//18
f 38//19 37//19 36//19
f 36//3 3//3 38//3
f 38//6 11//6 12//6
f 12//19 37//19 38//19
f 38//3 3//3 11//3
f 11//3 3//3 9//3
f 30//3 3//3 32//3
f 1//3 3//3 30//3
f 39//3 6//3 3//3
f 3//3 5//3 40//3
f 40//18 41//18 42//18
f 42//17 43//17 44//17
f 45//16 44//16 43//16
f 41//17 43//17 42//17
f 42//3 3//3 40//3
f 46//18 41//18 40//18
f 47//19 46//19 40//19
f 40//3 5//3 47//3
f 47//6 48//6 49//6
f 49//6 48//6 50//6
f 51//5 50//5 48//5
f 48//3 5//3 51//3
f 52//5 50//5 51//5
f 53//4 52//4 51//4
f 51//3 5//3 53//3
f 54//4 52//4 53//4
f 55//7 54//7 53//7
f 53//3 5//3 55//3
f 56//7 54//7 55//7
f 55//8 57//8 56//8
f 56//8 57//8 58//8
f 59//9 58//9 57//9
f 57//3 6//3 59//3
f 60//9 58//9 59//9
f 61//10 60//10 59//10
f 59//3 6//3 61//3
f 62//10 60//10 61//10
f 63//11 62//11 61//11
f 61//3 6//3 63//3
f 64//11 62//11 63//11
f 63//12 65//12 64//12
f 64//12 65//12 66//12
f 67//13 66//13 65//13
f 65//3 6//3 67//3
f 68//13 66//13 67//13
f 39//14 68//14 67//14
f 67//3 6//3 39//3
f 69//14 68//14 39//14
f 70//15 69//15 39//15
f 39//3 3//3 70//3
f 45//15 69//15 70//15
f 70//16 44//16 45//16
f 45//20 2//20 69//20
f 69//20 2//20 68//20
f 68//20 2//20 66//20
f 66//20 2//20 64//20
f 64//20 2//20 62//20
f 62//20 2//20 60//20
f 60//20 2//20 58//20
f 58//20 71//20 56//20
f 56//20 71//20 54//20
f 54//20 71//20 52//20
f 52//20 71//20 50//20
f 50//20 4//20 49//20
f 49//19 46//19 47//19
f 47//3 5//3 48//3
f 71//2 5//2 4//2
f 71//20 4//20 50//20
f 4//20 2//20 45//20
f 43//20 4//20 45//20
f 41//20 4//20 43//20
f 46//20 4//20 41//20
f 49//20 4//20 46//20
f 3//1 2//1 4//1
f 1//21 72//21 2//21
f 2//20 71//20 58//20
f 33//20 71//20 2//20
f 2//20 72//20 25//20
f 25//20 72//20 23//20
f 23//20 72//20 21//20
f 21//20 72//20 19//20
f 19//20 72//20 17//20
f 17//20 72//20 15//20
f 15//20 71//20 13//20
f 13//20 71//20 8//20
f 8//20 71//20 10//20
f 10//20 71//20 12//20
f 12//20 71//20 37//20
f 37//20 71//20 35//20
f 35//20 71//20 33//20
f 33//20 2//20 31//20
f 31//20 2//20 29//20
f 29//20 2//20 27//20
f 27//20 2//20 25//20
f 72//20 71//20 15//20
f 72//22 5//22 71//22
f 5//3 6//3 55//3
f 55//3 6//3 57//3
f 6//21 72//21 1//21
f 6//3 1//3 20//3
f 22//3 1//3 24//3
f 14//3 6//3 16//3
f 63//3 6//3 65//3
f 6//22 5//22 72//22
f 44//3 3//3 42//3
f 70//3 3//3 44//3
