# Blender 4.4.3
# www.blender.org
mtllib shooter.mtl
o shooter
v 0.215205 0.722992 -0.440000
v -0.331360 0.784367 -0.440000
v 0.215205 0.722992 -0.340000
v -0.182297 0.767629 -0.340000
v 0.142139 0.708952 -0.340000
v 0.131287 0.703448 -0.340000
v 0.142139 0.708952 -0.440000
v 0.153348 0.709813 -0.440000
v 0.131287 0.703448 -0.440000
v 0.123513 0.694087 -0.340000
v 0.123513 0.694086 -0.440000
v 0.120187 0.683348 -0.340000
v 0.121048 0.672139 -0.340000
v 0.120187 0.683348 -0.440000
v 0.121048 0.672139 -0.440000
v 0.126552 0.661286 -0.340000
v -0.038813 0.701202 -0.340000
v 0.126552 0.661286 -0.440000
v 0.135913 0.653513 -0.340000
v 0.135913 0.653513 -0.440000
v 0.146652 0.650187 -0.340000
v 0.204046 0.623617 -0.340000
v 0.157861 0.651048 -0.340000
v 0.146652 0.650187 -0.440000
v 0.157861 0.651048 -0.440000
v 0.168713 0.656552 -0.340000
v 0.168713 0.656552 -0.440000
v 0.176487 0.665913 -0.340000
v 0.176487 0.665913 -0.440000
v 0.179813 0.676652 -0.340000
v 0.179813 0.676652 -0.440000
v 0.178952 0.687861 -0.340000
v 0.178952 0.687861 -0.440000
v 0.173448 0.698714 -0.340000
v 0.173448 0.698713 -0.440000
v 0.164087 0.706487 -0.340000
v 0.164087 0.706487 -0.440000
v 0.153348 0.709813 -0.340000
v -0.182297 0.767629 -0.160000
v -0.193456 0.668253 -0.340000
v -0.193456 0.668253 -0.160000
v -0.097578 0.696689 -0.160000
v -0.098439 0.707898 -0.160000
v -0.097578 0.696689 -0.060000
v -0.092074 0.685837 -0.060000
v -0.092074 0.685837 -0.160000
v -0.082712 0.678063 -0.060000
v -0.082712 0.678063 -0.160000
v -0.071974 0.674737 -0.060000
v -0.571224 0.760988 -0.060000
v -0.060765 0.675598 -0.060000
v -0.071974 0.674737 -0.160000
v -0.060765 0.675598 -0.160000
v -0.049912 0.681102 -0.060000
v -0.049912 0.681102 -0.160000
v -0.042139 0.690464 -0.060000
v -0.042139 0.690464 -0.160000
v -0.038813 0.701202 -0.060000
v 0.120187 0.683348 -0.160000
v 0.204046 0.623617 -0.060000
v -0.789708 0.735208 -0.060000
v -0.778549 0.834584 -0.440000
v -0.778549 0.834584 -0.060000
v -0.571224 0.760988 -0.440000
v -0.331360 0.784368 -0.060000
v -0.098439 0.707898 -0.060000
v -0.095113 0.718637 -0.160000
v -0.095113 0.718637 -0.060000
v -0.087339 0.727998 -0.160000
v -0.087339 0.727998 -0.060000
v -0.076487 0.733502 -0.160000
v -0.076487 0.733502 -0.060000
v -0.065278 0.734363 -0.160000
v -0.065278 0.734363 -0.060000
v -0.054539 0.731037 -0.160000
v -0.054539 0.731037 -0.060000
v -0.045178 0.723264 -0.160000
v 0.215205 0.722992 -0.160000
v -0.045178 0.723264 -0.060000
v -0.039674 0.712411 -0.160000
v -0.039674 0.712411 -0.060000
v -0.038813 0.701202 -0.160000
v 0.142139 0.708952 -0.160000
v 0.131287 0.703448 -0.060000
v 0.131287 0.703448 -0.160000
v 0.123513 0.694087 -0.060000
v 0.123513 0.694087 -0.160000
v 0.120187 0.683348 -0.060000
v 0.142139 0.708952 -0.060000
v 0.153348 0.709813 -0.160000
v 0.153348 0.709813 -0.060000
v 0.164087 0.706487 -0.160000
v 0.164087 0.706487 -0.060000
v 0.173448 0.698714 -0.160000
v 0.173448 0.698714 -0.060000
v 0.178952 0.687861 -0.160000
v 0.178952 0.687861 -0.060000
v 0.179813 0.676652 -0.160000
v 0.204046 0.623617 -0.160000
v 0.176487 0.665913 -0.160000
v 0.179813 0.676652 -0.060000
v 0.176487 0.665913 -0.060000
v 0.168713 0.656552 -0.160000
v 0.168713 0.656552 -0.060000
v 0.157861 0.651048 -0.160000
v 0.157861 0.651048 -0.060000
v 0.146652 0.650187 -0.160000
v 0.146652 0.650187 -0.060000
v 0.135913 0.653513 -0.160000
v 0.135913 0.653513 -0.060000
v 0.126552 0.661286 -0.160000
v 0.126552 0.661286 -0.060000
v 0.121048 0.672139 -0.160000
v 0.121048 0.672139 -0.060000
v 0.215205 0.722992 -0.060000
v -0.789708 0.735208 -0.440000
v -0.071974 0.674737 -0.340000
v -0.060765 0.675598 -0.340000
v -0.071974 0.674737 -0.440000
v -0.060765 0.675598 -0.440000
v -0.049912 0.681102 -0.340000
v -0.049912 0.681102 -0.440000
v -0.042139 0.690464 -0.340000
v -0.042139 0.690463 -0.440000
v -0.038813 0.701202 -0.440000
v -0.039674 0.712411 -0.340000
v -0.039674 0.712411 -0.440000
v -0.045178 0.723264 -0.340000
v -0.045178 0.723264 -0.440000
v -0.054539 0.731037 -0.340000
v -0.054539 0.731037 -0.440000
v -0.065278 0.734363 -0.340000
v -0.076487 0.733502 -0.340000
v -0.065278 0.734363 -0.440000
v -0.076487 0.733502 -0.440000
v -0.087339 0.727998 -0.340000
v -0.087339 0.727998 -0.440000
v -0.095113 0.718637 -0.340000
v -0.095113 0.718637 -0.440000
v -0.098439 0.707898 -0.340000
v -0.097578 0.696689 -0.340000
v -0.098439 0.707898 -0.440000
v -0.097578 0.696689 -0.440000
v -0.092074 0.685837 -0.340000
v -0.092074 0.685837 -0.440000
v -0.082712 0.678063 -0.340000
v -0.082712 0.678063 -0.440000
v 0.204046 0.623617 -0.440000
vn 0.1116 0.9938 -0.0000
vn -0.0000 -0.0000 1.0000
vn 0.4523 -0.8919 -0.0000
vn 0.0766 -0.9971 -0.0000
vn 0.7693 -0.6388 -0.0000
vn 0.9552 -0.2958 -0.0000
vn 0.9971 0.0766 -0.0000
vn 0.8919 0.4523 -0.0000
vn 0.6388 0.7693 -0.0000
vn 0.2958 0.9552 -0.0000
vn -0.0766 0.9971 -0.0000
vn -0.4523 0.8919 -0.0000
vn -0.7693 0.6389 -0.0000
vn -0.7693 0.6388 -0.0000
vn -0.9552 0.2958 -0.0000
vn -0.9971 -0.0766 -0.0000
vn -0.8919 -0.4523 -0.0000
vn -0.6388 -0.7693 -0.0000
vn -0.2958 -0.9552 -0.0000
vn 0.9938 -0.1116 -0.0000
vn -0.0000 -0.0000 -1.0000
vn 0.6389 0.7693 -0.0000
vn -0.9938 0.1116 -0.0000
vn 0.3345 0.9424 -0.0000
vn -0.0970 0.9953 -0.0000
vn 0.7693 -0.6389 -0.0000
vn -0.6389 -0.7693 -0.0000
vn -0.1116 -0.9938 -0.0000
s 1
usemtl part_3
f 1//1 2//1 3//1
f 3//2 4//2 5//2
f 6//3 7//3 5//3
f 8//4 5//4 7//4
f 9//3 7//3 6//3
f 10//5 9//5 6//5
f 6//2 4//2 10//2
f 11//5 9//5 10//5
f 12//6 11//6 10//6
f 10//2 4//2 12//2
f 12//7 13//7 14//7
f 14//7 13//7 15//7
f 16//8 15//8 13//8
f 13//2 17//2 16//2
f 18//8 15//8 16//8
f 19//9 18//9 16//9
f 16//2 17//2 19//2
f 20//9 18//9 19//9
f 21//10 20//10 19//10
f 19//2 22//2 21//2
f 21//11 23//11 24//11
f 24//11 23//11 25//11
f 26//12 25//12 23//12
f 23//2 22//2 26//2
f 27//12 25//12 26//12
f 28//13 27//14 26//13
f 26//2 22//2 28//2
f 29//14 27//14 28//13
f 30//15 29//15 28//15
f 28//2 22//2 30//2
f 31//15 29//15 30//15
f 30//16 32//16 31//16
f 31//16 32//16 33//16
f 34//17 33//17 32//17
f 32//2 3//2 34//2
f 35//17 33//17 34//17
f 36//18 35//18 34//18
f 34//2 3//2 36//2
f 37//18 35//18 36//18
f 38//19 37//19 36//19
f 36//2 3//2 38//2
f 38//4 5//4 8//4
f 8//19 37//19 38//19
f 38//2 3//2 5//2
f 5//2 4//2 6//2
f 4//20 39//20 40//20
f 40//20 39//20 41//20
f 42//21 41//21 43//21
f 43//7 44//7 42//7
f 42//8 45//8 46//8
f 46//9 47//22 48//9
f 49//10 48//10 47//10
f 45//22 47//22 46//9
f 46//21 41//21 42//21
f 44//8 45//8 42//8
f 45//2 50//2 47//2
f 47//2 50//2 49//2
f 49//11 51//11 52//11
f 52//11 51//11 53//11
f 53//12 54//12 55//12
f 55//13 56//13 57//13
f 58//15 57//15 56//15
f 54//13 56//13 55//13
f 55//21 59//21 53//21
f 51//12 54//12 53//12
f 53//21 59//21 52//21
f 52//10 48//10 49//10
f 49//2 50//2 60//2
f 60//2 50//2 61//2
f 62//23 61//23 63//23
f 50//24 62//24 63//24
f 61//2 50//2 63//2
f 64//24 62//24 50//24
f 65//25 64//25 50//25
f 44//2 50//2 45//2
f 66//2 50//2 44//2
f 66//7 44//7 43//7
f 43//6 67//6 66//6
f 66//6 67//6 68//6
f 69//26 68//26 67//26
f 67//21 39//21 69//21
f 70//26 68//26 69//26
f 71//3 70//3 69//3
f 69//21 39//21 71//21
f 72//3 70//3 71//3
f 73//4 72//4 71//4
f 71//21 39//21 73//21
f 74//4 72//4 73//4
f 73//19 75//19 74//19
f 74//19 75//19 76//19
f 77//27 76//27 75//27
f 75//21 78//21 77//21
f 79//27 76//27 77//27
f 80//17 79//17 77//17
f 77//21 78//21 80//21
f 81//17 79//17 80//17
f 82//16 81//16 80//16
f 80//21 78//21 83//21
f 83//3 84//3 85//3
f 85//5 86//5 87//5
f 88//6 87//6 86//6
f 84//5 86//5 85//5
f 85//21 80//21 83//21
f 89//3 84//3 83//3
f 90//4 89//4 83//4
f 83//21 78//21 90//21
f 91//4 89//4 90//4
f 90//19 92//19 91//19
f 91//19 92//19 93//19
f 94//18 93//18 92//18
f 92//21 78//21 94//21
f 95//18 93//18 94//18
f 96//17 95//17 94//17
f 94//21 78//21 96//21
f 97//17 95//17 96//17
f 98//16 97//16 96//16
f 96//21 99//21 98//21
f 98//15 100//15 101//15
f 101//15 100//15 102//15
f 103//14 102//13 100//14
f 100//21 99//21 103//21
f 104//13 102//13 103//14
f 105//12 104//12 103//12
f 103//21 99//21 105//21
f 106//12 104//12 105//12
f 107//11 106//11 105//11
f 105//21 99//21 107//21
f 108//11 106//11 107//11
f 107//10 109//10 108//10
f 108//10 109//10 110//10
f 111//9 110//9 109//9
f 109//21 41//21 111//21
f 112//9 110//9 111//9
f 113//8 112//8 111//8
f 111//21 41//21 113//21
f 114//8 112//8 113//8
f 59//7 114//7 113//7
f 113//21 41//21 59//21
f 88//7 114//7 59//7
f 59//6 87//6 88//6
f 88//2 49//2 114//2
f 114//2 49//2 112//2
f 112//2 49//2 110//2
f 110//2 49//2 108//2
f 108//2 49//2 60//2
f 106//2 108//2 60//2
f 104//2 106//2 60//2
f 102//2 104//2 60//2
f 115//2 102//2 60//2
f 99//20 115//20 60//20
f 60//28 61//28 99//28
f 78//20 115//20 99//20
f 99//21 41//21 107//21
f 107//21 41//21 109//21
f 48//21 41//21 46//21
f 52//21 41//21 48//21
f 59//21 41//21 52//21
f 41//21 39//21 43//21
f 43//21 39//21 67//21
f 39//21 78//21 73//21
f 73//21 78//21 75//21
f 78//21 99//21 96//21
f 98//21 99//21 100//21
f 99//28 61//28 41//28
f 41//28 116//28 40//28
f 40//2 22//2 117//2
f 117//11 118//11 119//11
f 119//11 118//11 120//11
f 121//12 120//12 118//12
f 118//2 22//2 121//2
f 122//12 120//12 121//12
f 123//13 122//13 121//13
f 121//2 22//2 123//2
f 124//13 122//13 123//13
f 17//15 124//15 123//15
f 123//2 22//2 17//2
f 125//15 124//15 17//15
f 17//16 126//16 125//16
f 125//16 126//16 127//16
f 128//17 127//17 126//17
f 126//2 12//2 128//2
f 129//17 127//17 128//17
f 130//27 129//27 128//27
f 128//2 12//2 130//2
f 131//27 129//27 130//27
f 132//19 131//19 130//19
f 130//2 12//2 132//2
f 132//4 133//4 134//4
f 134//4 133//4 135//4
f 136//3 135//3 133//3
f 133//2 4//2 136//2
f 137//3 135//3 136//3
f 138//26 137//26 136//26
f 136//2 4//2 138//2
f 139//26 137//26 138//26
f 140//6 139//6 138//6
f 138//2 40//2 140//2
f 140//7 141//7 142//7
f 142//7 141//7 143//7
f 144//8 143//8 141//8
f 141//2 40//2 144//2
f 145//8 143//8 144//8
f 146//9 145//9 144//9
f 144//2 40//2 146//2
f 147//9 145//9 146//9
f 117//10 147//10 146//10
f 146//2 40//2 117//2
f 119//10 147//10 117//10
f 117//2 22//2 118//2
f 21//2 22//2 23//2
f 17//2 22//2 19//2
f 22//2 3//2 30//2
f 30//2 3//2 32//2
f 148//20 3//20 22//20
f 40//28 148//28 22//28
f 1//20 3//20 148//20
f 148//21 64//21 119//21
f 119//21 64//21 147//21
f 147//21 2//21 145//21
f 145//21 2//21 143//21
f 143//21 2//21 142//21
f 142//6 139//6 140//6
f 140//2 40//2 141//2
f 4//2 40//2 138//2
f 116//28 148//28 40//28
f 120//21 148//21 119//21
f 122//21 148//21 120//21
f 124//21 148//21 122//21
f 125//21 148//21 124//21
f 20//21 148//21 125//21
f 18//21 20//21 125//21
f 15//21 18//21 125//21
f 14//21 15//21 125//21
f 125//21 1//21 7//21
f 7//21 1//21 8//21
f 8//21 1//21 37//21
f 37//21 1//21 35//21
f 35//21 1//21 33//21
f 33//21 148//21 31//21
f 31//21 148//21 29//21
f 29//21 148//21 27//21
f 27//21 148//21 25//21
f 25//21 148//21 24//21
f 24//10 20//10 21//10
f 24//21 148//21 20//21
f 1//21 148//21 33//21
f 116//21 64//21 148//21
f 2//25 64//25 65//25
f 65//2 50//2 115//2
f 101//2 102//2 115//2
f 115//2 50//2 74//2
f 74//2 50//2 72//2
f 72//2 50//2 70//2
f 70//2 50//2 68//2
f 68//2 50//2 66//2
f 76//2 115//2 74//2
f 79//2 115//2 76//2
f 81//2 115//2 79//2
f 58//2 115//2 81//2
f 58//16 81//16 82//16
f 82//15 57//15 58//15
f 58//2 56//2 88//2
f 51//2 49//2 88//2
f 54//2 51//2 88//2
f 56//2 54//2 88//2
f 88//2 86//2 58//2
f 89//2 115//2 58//2
f 84//2 89//2 58//2
f 86//2 84//2 58//2
f 91//2 115//2 89//2
f 93//2 115//2 91//2
f 95//2 115//2 93//2
f 97//2 115//2 95//2
f 101//2 115//2 97//2
f 101//16 97//16 98//16
f 39//1 115//1 78//1
f 90//21 78//21 92//21
f 65//1 115//1 39//1
f 4//1 65//1 39//1
f 2//1 65//1 4//1
f 132//2 4//2 133//2
f 12//2 4//2 132//2
f 134//19 131//19 132//19
f 131//21 1//21 129//21
f 129//21 1//21 127//21
f 127//21 1//21 125//21
f 9//21 125//21 7//21
f 11//21 125//21 9//21
f 14//21 125//21 11//21
f 14//6 11//6 12//6
f 12//2 17//2 13//2
f 17//2 12//2 126//2
f 134//21 1//21 131//21
f 2//21 1//21 134//21
f 135//21 2//21 134//21
f 64//21 2//21 147//21
f 137//21 2//21 135//21
f 139//21 2//21 137//21
f 142//21 2//21 139//21
f 3//1 2//1 4//1
f 62//21 64//21 116//21
f 116//23 61//23 62//23
f 61//28 116//28 41//28
f 57//21 59//21 55//21
f 82//21 59//21 57//21
f 59//21 80//21 87//21
f 87//21 80//21 85//21
f 82//21 80//21 59//21
